<svg xmlns="http://www.w3.org/2000/svg" xmlns:xlink="http://www.w3.org/1999/xlink" width="500" zoomAndPan="magnify" viewBox="0 0 375 374.999991" height="500" preserveAspectRatio="xMidYMid meet" version="1.0"><defs><clipPath id="3947c6b823"><path d="M 91 34.394531 L 297.910156 34.394531 L 297.910156 335.144531 L 91 335.144531 Z M 91 34.394531 " clip-rule="nonzero"/></clipPath><clipPath id="8e9913ed8a"><path d="M 82 34.394531 L 293 34.394531 L 293 340.394531 L 82 340.394531 Z M 82 34.394531 " clip-rule="nonzero"/></clipPath></defs><g clip-path="url(#3947c6b823)"><path fill="#ffde59" d="M 245.390625 34.417969 C 243.847656 34.648438 242.503906 35.929688 242.21875 36.265625 C 242.082031 36.433594 241.777344 36.597656 241.691406 36.792969 L 92.25 200.230469 C 91.566406 200.914062 91.191406 201.832031 91.191406 202.871094 C 91.191406 204.953125 92.804688 206.570312 94.886719 206.570312 L 170.929688 206.570312 L 139.246094 330.136719 L 139.246094 330.929688 C 139.195312 331.164062 138.984375 331.464844 138.984375 331.71875 C 138.984375 333.804688 140.597656 335.421875 142.679688 335.421875 C 143.847656 335.421875 144.894531 334.929688 145.585938 334.101562 L 296.34375 162.207031 C 297.027344 161.523438 297.398438 160.609375 297.398438 159.566406 C 297.398438 157.488281 295.785156 155.871094 293.707031 155.871094 L 212.117188 155.871094 L 248.554688 39.964844 C 248.800781 39.460938 248.816406 38.976562 248.816406 38.378906 C 248.816406 36.296875 248.707031 35.386719 246.972656 34.683594 C 246.453125 34.46875 245.902344 34.335938 245.390625 34.417969 Z M 245.390625 34.417969 " fill-opacity="1" fill-rule="nonzero"/></g><g clip-path="url(#8e9913ed8a)"><path fill="#0075ff" d="M 239.621094 34.417969 C 238.054688 34.652344 236.683594 35.957031 236.398438 36.300781 C 236.257812 36.46875 235.945312 36.636719 235.859375 36.835938 L 83.847656 203.082031 C 83.152344 203.78125 82.769531 204.710938 82.769531 205.769531 C 82.769531 207.886719 84.414062 209.53125 86.53125 209.53125 L 163.878906 209.53125 L 131.652344 335.226562 L 131.652344 336.03125 C 131.601562 336.269531 131.386719 336.578125 131.386719 336.835938 C 131.386719 338.957031 133.027344 340.601562 135.144531 340.601562 C 136.332031 340.601562 137.398438 340.101562 138.101562 339.257812 L 291.453125 164.40625 C 292.148438 163.710938 292.527344 162.78125 292.527344 161.722656 C 292.527344 159.605469 290.886719 157.960938 288.769531 157.960938 L 205.777344 157.960938 L 242.84375 40.058594 C 243.09375 39.546875 243.109375 39.054688 243.109375 38.449219 C 243.109375 36.328125 242.996094 35.402344 241.230469 34.6875 C 240.703125 34.472656 240.140625 34.335938 239.621094 34.417969 Z M 239.621094 34.417969 " fill-opacity="1" fill-rule="nonzero"/></g></svg>